<svg width="141" height="32" viewBox="0 0 141 32" fill="none" xmlns="http://www.w3.org/2000/svg">
<path d="M96.7716 9.67365C97.2556 12.1095 99.2882 13.2476 103.016 13.2476C107.23 13.2476 109.17 11.8525 109.17 9.54636C109.17 7.60715 107.943 6.51899 105.138 6.24446L102.046 6.03731C100.605 5.89255 100.197 5.62052 100.197 5.04399C100.197 4.42005 100.894 4.05067 102.94 4.05067C104.713 4.05067 105.502 4.48244 105.776 5.5082L108.899 5.04399C108.429 2.76785 106.519 1.67969 103.002 1.67969C99.1678 1.67969 97.0762 3.05736 97.0762 5.34848C97.0762 7.24027 98.3179 8.37584 101.033 8.61793L104.064 8.82509C105.717 8.98482 106.049 9.24188 106.049 9.86582C106.049 10.5222 105.292 10.8741 103.08 10.8741C101.156 10.8741 100.169 10.33 99.8973 9.20694L96.7716 9.67365ZM82.4938 13.0729H85.3291V5.49323L91.8306 13.0729H94.8311V1.85689H92.0124V9.45152L85.5109 1.85689H82.4938V13.0729ZM72.0498 8.56802L73.8086 4.93168L75.5508 8.56802H72.0498ZM77.718 13.0729H81.0821L75.4281 1.85689H72.2906L66.6366 13.0729H69.8803L70.8812 10.9889H76.717L77.718 13.0729ZM61.1502 4.30774C62.1063 4.30774 62.6045 4.75697 62.6045 5.59056C62.6045 6.42415 62.104 6.87339 61.1502 6.87339H57.3612V4.31023H61.1502V4.30774ZM54.2852 13.0729H57.3612V9.32424H59.2711L62.3943 13.0729H66.1692L62.6517 8.96984C64.5615 8.66535 65.6829 7.35258 65.6829 5.52567C65.6829 3.28197 64.2428 1.85689 61.6956 1.85689H54.2828V13.0729H54.2852ZM44.9625 13.0729H48.0386V4.42005H52.4792V1.85689H40.5645V4.42005H44.9602V13.0729H44.9625Z" />
<path d="M127.082 24.8775C127.082 28.419 129.524 30.6627 133.889 30.6627C137.39 30.6627 139.632 29.3001 140.225 26.6396L137.073 25.9981C136.799 27.4083 135.77 28.0971 133.891 28.0971C131.436 28.0971 130.239 27.0239 130.239 24.875C130.239 22.7437 131.436 21.653 133.891 21.653C135.709 21.653 136.74 22.3418 137.059 23.6871L140.258 23.0307C139.62 20.4351 137.378 19.0898 133.891 19.0898C129.689 19.0923 127.082 21.336 127.082 24.8775ZM121.943 30.4855H125.019V19.2695H121.943V30.4855ZM112.623 30.4855H115.699V21.8327H120.14V19.2695H108.225V21.8327H112.62V30.4855H112.623ZM94.0697 30.4855H96.905V22.9059L103.406 30.4855H106.407V19.2695H103.588V26.8642L97.0867 19.2695H94.0697V30.4855ZM83.6257 25.9832L85.3845 22.3468L87.1267 25.9832H83.6257ZM89.2939 30.4855H92.658L87.0039 19.2695H83.8665L78.2125 30.4855H81.4562L82.4572 28.4016H88.2929L89.2939 30.4855ZM67.8016 30.4855H77.4712V27.9224H70.8776V19.2695H67.8016V30.4855ZM58.479 30.4855H61.555V21.8327H65.9956V19.2695H54.0809V21.8327H58.4766V30.4855H58.479ZM45.823 25.9832L47.5817 22.3468L49.324 25.9832H45.823ZM51.4935 30.4855H54.8576L49.2036 19.2695H46.0661L40.4121 30.4855H43.6558L44.6568 28.4016H50.4925L51.4935 30.4855Z" />
<path d="M24.8923 0.832031L17.8085 0.832041L15.8867 8.68746H19.826L21.3848 15.0609H17.8085L15.8867 22.9186H23.3065L25.408 31.5116H32.3955L24.8923 0.832031Z" />
<path d="M10.077 0.832031H17.0644L9.56124 31.5116H2.57379L10.077 0.832031Z" />
<path d="M2.17573 0.832041H3.97984L2.05801 8.68746H0.253906L2.17573 0.832041Z" />
<path d="M9.31728 0.832031H4.67753L2.7557 8.68745H7.39545L9.31728 0.832031Z" />
</svg>
